<svg width="84" height="36" viewBox="0 0 84 36" fill="none" xmlns="http://www.w3.org/2000/svg">
<path d="M5.14216 23.1703C4.92049 23.1703 4.80871 23.0504 4.80871 22.8049V9.56466C4.80871 8.20738 5.21415 7.08856 6.02503 6.2082C6.83591 5.32784 7.88109 4.88831 9.16056 4.8896H11.4208C11.6595 4.8896 11.7808 5.00367 11.7808 5.22988V6.71863C11.7874 6.76838 11.7826 6.81902 11.7669 6.86658C11.7511 6.91413 11.7247 6.95731 11.6899 6.99272C11.655 7.02813 11.6125 7.0548 11.5658 7.07065C11.5192 7.0865 11.4695 7.09108 11.4208 7.08405H9.33676C9.03361 7.07274 8.73177 7.13016 8.45298 7.25219C8.17419 7.37422 7.92538 7.55781 7.72447 7.78976C7.30164 8.29814 7.08241 8.95066 7.11063 9.61686V13.012H10.9244C10.9696 13.0055 11.0157 13.0098 11.0589 13.0246C11.1022 13.0395 11.1415 13.0644 11.1737 13.0974C11.2058 13.1305 11.23 13.1707 11.2443 13.2149C11.2586 13.2592 11.2626 13.3062 11.256 13.3523V14.841C11.2627 14.887 11.2587 14.934 11.2445 14.9782C11.2302 15.0224 11.2059 15.0625 11.1737 15.0954C11.1415 15.1283 11.1021 15.153 11.0588 15.1676C11.0155 15.1822 10.9695 15.1862 10.9244 15.1794H7.11252V22.8049C7.11252 23.0504 7.00264 23.1703 6.78097 23.1703H5.14216Z" fill="#211E1F"/>
<path d="M12.8455 23.1705C12.7968 23.178 12.747 23.1737 12.7002 23.158C12.6534 23.1423 12.6108 23.1156 12.576 23.0801C12.5411 23.0445 12.515 23.0011 12.4996 22.9533C12.4842 22.9055 12.48 22.8548 12.4874 22.805V14.6324C12.4874 13.239 12.8878 12.1286 13.6886 11.3011C14.4894 10.4736 15.5472 10.0604 16.862 10.0617H17.8093C18.031 10.0617 18.1427 10.1835 18.1427 10.4271V11.8366C18.149 11.8828 18.1448 11.9299 18.1302 11.9741C18.1157 12.0183 18.0913 12.0585 18.059 12.0914C18.0267 12.1244 17.9873 12.1493 17.944 12.1641C17.9007 12.179 17.8546 12.1833 17.8093 12.1769H16.8885C16.5952 12.163 16.3021 12.2101 16.0272 12.3155C15.7523 12.4209 15.5013 12.5823 15.2895 12.7898C15.084 13.0101 14.9246 13.2708 14.8211 13.556C14.7175 13.8412 14.6719 14.1449 14.687 14.4487V22.805C14.694 22.8547 14.6895 22.9053 14.674 22.9529C14.6585 23.0005 14.6323 23.0437 14.5976 23.0791C14.5628 23.1146 14.5204 23.1413 14.4738 23.1572C14.4272 23.173 14.3776 23.1776 14.329 23.1705H12.8455Z" fill="#211E1F"/>
<path d="M22.5438 23.4317C21.3312 23.4317 20.3543 23.0405 19.6129 22.2581C18.8714 21.4757 18.5007 20.4484 18.5007 19.1762V14.0565C18.5159 12.8036 18.8948 11.7898 19.6375 11.0152C20.3802 10.2405 21.3565 9.85383 22.5665 9.85512C23.7626 9.83836 24.744 10.2212 25.5107 11.0036C25.8916 11.3934 26.1903 11.8587 26.3884 12.3708C26.5865 12.8828 26.6798 13.4308 26.6626 13.9811C26.6778 14.5081 26.5845 15.0325 26.3887 15.5204C26.1929 16.0083 25.899 16.4489 25.5259 16.8136C24.7756 17.5534 23.7948 17.924 22.5836 17.9253H20.7041V19.2787C20.6797 19.8177 20.8587 20.3457 21.2043 20.7539C21.3786 20.9434 21.5913 21.0917 21.8275 21.1886C22.0638 21.2854 22.3179 21.3284 22.5722 21.3146C22.8084 21.3218 23.0434 21.278 23.2618 21.1861C23.4803 21.0941 23.6772 20.9561 23.8397 20.781C24.1827 20.3984 24.378 19.9016 24.3891 19.3831C24.3868 19.3356 24.3948 19.2882 24.4123 19.2442C24.4299 19.2001 24.4566 19.1605 24.4907 19.1281C24.5248 19.0957 24.5654 19.0713 24.6097 19.0566C24.654 19.0418 24.7009 19.0371 24.7472 19.0428H26.2628C26.3081 19.0364 26.3542 19.0408 26.3975 19.0556C26.4409 19.0704 26.4802 19.0953 26.5125 19.1283C26.5449 19.1613 26.5692 19.2014 26.5838 19.2457C26.5983 19.2899 26.6026 19.3369 26.5963 19.3831C26.5281 20.6012 26.1226 21.5801 25.38 22.32C25.005 22.6908 24.5605 22.9804 24.0731 23.1714C23.5857 23.3625 23.0655 23.451 22.5438 23.4317ZM20.7003 15.8913H22.5949C22.8451 15.9052 23.0954 15.8674 23.3308 15.78C23.5662 15.6926 23.7818 15.5575 23.9647 15.3828C24.1337 15.2038 24.2651 14.9913 24.3508 14.7586C24.4365 14.5259 24.4746 14.2777 24.463 14.0294C24.4893 13.48 24.3059 12.9415 23.9515 12.5271C23.7732 12.3387 23.5577 12.1913 23.3192 12.0946C23.0807 11.9979 22.8247 11.9542 22.5684 11.9664C21.9722 11.9664 21.5119 12.1488 21.1873 12.5136C20.8627 12.8784 20.7016 13.3843 20.7041 14.0314L20.7003 15.8913Z" fill="#211E1F"/>
<path d="M32.0891 23.4586C30.8109 23.4586 29.7872 23.0668 29.018 22.2831C28.2467 21.4921 27.8141 20.4215 27.8149 19.3056C27.8149 19.0446 27.9343 18.9189 28.1749 18.9189H29.6584C29.7045 18.9133 29.7512 18.9179 29.7954 18.9325C29.8395 18.9472 29.88 18.9714 29.9141 19.0036C29.9482 19.0358 29.975 19.0751 29.9926 19.1189C30.0103 19.1627 30.0184 19.2099 30.0165 19.2573C30.1238 20.6313 30.809 21.3177 32.0721 21.3164C32.6518 21.3164 33.0939 21.1688 33.3983 20.8736C33.5519 20.7219 33.6724 20.5387 33.7517 20.3361C33.8311 20.1335 33.8675 19.9161 33.8587 19.6981C33.8559 19.4605 33.8004 19.2266 33.6964 19.0139C33.5924 18.8013 33.4425 18.6155 33.2581 18.4704C32.8159 18.0977 32.3192 17.7983 31.786 17.5829C31.2062 17.3393 30.6265 17.0693 30.0468 16.7728C29.4615 16.4745 28.9562 16.0352 28.5747 15.4929C28.1649 14.9074 27.954 14.2013 27.9741 13.4821C27.959 12.9925 28.0464 12.5053 28.2303 12.0529C28.4142 11.6005 28.6905 11.1933 29.0407 10.8584C29.7569 10.1701 30.6865 9.82596 31.8296 9.82596C33.1255 9.82596 34.1106 10.1875 34.7851 10.9106C35.4745 11.6556 35.8594 12.641 35.8612 13.6658C35.8612 13.9094 35.7495 14.0312 35.5278 14.0312H34.0121C33.9665 14.0338 33.9208 14.027 33.8778 14.0111C33.8349 13.9953 33.7955 13.9707 33.762 13.9389C33.7286 13.9071 33.7018 13.8688 33.6832 13.8262C33.6647 13.7835 33.6547 13.7375 33.654 13.6909C33.6407 13.2192 33.4587 12.7688 33.1425 12.4245C32.9774 12.26 32.7808 12.1322 32.5649 12.049C32.3491 11.9658 32.1187 11.9291 31.8883 11.9411C31.426 11.9174 30.9727 12.0767 30.6227 12.3858C30.467 12.5308 30.3439 12.7086 30.2621 12.9069C30.1804 13.1052 30.1418 13.3193 30.1491 13.5343C30.1526 13.7638 30.2102 13.989 30.317 14.1909C30.4239 14.3928 30.5768 14.5655 30.7629 14.6944C31.2133 15.0425 31.7062 15.3291 32.2293 15.547C32.8015 15.7906 33.3774 16.0607 33.9572 16.3571C34.5466 16.6607 35.056 17.1043 35.4425 17.6506C35.8617 18.2558 36.0753 18.9844 36.0507 19.7252C36.0641 20.2254 35.9729 20.7228 35.7831 21.1842C35.5932 21.6457 35.3092 22.0605 34.9499 22.4011C34.2212 23.1074 33.2676 23.4599 32.0891 23.4586Z" fill="#211E1F"/>
<path d="M38.1532 23.1703C38.1045 23.1774 38.0549 23.1728 38.0083 23.157C37.9617 23.1411 37.9193 23.1144 37.8846 23.079C37.8498 23.0435 37.8236 23.0003 37.8081 22.9527C37.7926 22.9051 37.7881 22.8545 37.7951 22.8048V5.22988C37.7951 5.00367 37.9145 4.88959 38.1532 4.88959H39.6385C39.8773 4.88959 39.9966 5.00367 39.9966 5.22988V10.7402C40.252 10.4451 40.5673 10.2103 40.9207 10.0524C41.2741 9.89444 41.6571 9.81707 42.0428 9.82567C43.2035 9.82567 44.1337 10.2265 44.8335 11.0283C45.5332 11.83 45.8831 12.8657 45.8831 14.1353V22.8048C45.8901 22.8547 45.8857 22.9055 45.87 22.9532C45.8544 23.001 45.828 23.0444 45.7931 23.0799C45.7581 23.1154 45.7155 23.142 45.6686 23.1577C45.6217 23.1734 45.5719 23.1777 45.5231 23.1703H44.0397C43.991 23.1774 43.9414 23.1728 43.8948 23.157C43.8482 23.1411 43.8058 23.1144 43.771 23.079C43.7363 23.0435 43.7101 23.0003 43.6946 22.9527C43.6791 22.9051 43.6746 22.8545 43.6816 22.8048V14.056C43.7113 13.5005 43.5325 12.9543 43.1814 12.5286C43.0069 12.3395 42.7942 12.1914 42.558 12.0945C42.3218 11.9977 42.0677 11.9545 41.8135 11.9679C41.5658 11.9574 41.3188 12.0021 41.0898 12.0989C40.8607 12.1957 40.6551 12.3424 40.4873 12.5286C40.1368 12.9545 39.9586 13.5007 39.989 14.056V22.8048C39.996 22.8545 39.9915 22.9051 39.976 22.9527C39.9605 23.0003 39.9343 23.0435 39.8996 23.079C39.8648 23.1144 39.8224 23.1411 39.7758 23.157C39.7292 23.1728 39.6796 23.1774 39.631 23.1703H38.1532Z" fill="#211E1F"/>
<path d="M48.4919 23.1702C48.3384 23.1702 48.2626 23.1026 48.2626 22.9614V9.234C48.2626 7.87672 48.6251 6.77595 49.3501 5.93168C50.0751 5.08741 51.0521 4.66528 52.2811 4.66528C53.5087 4.66528 54.4895 5.09192 55.2233 5.94522C55.9572 6.79851 56.3241 7.89412 56.3241 9.23206V11.9389C56.3241 13.1763 55.9483 14.1952 55.1968 14.9957C54.4453 15.7961 53.4734 16.1963 52.2811 16.1963H49.4657V22.9634C49.468 22.9914 49.4643 23.0196 49.4548 23.046C49.4453 23.0724 49.4303 23.0963 49.4109 23.1162C49.3914 23.1361 49.3679 23.1514 49.342 23.1611C49.3162 23.1707 49.2885 23.1745 49.2611 23.1722L48.4919 23.1702ZM49.4657 15.0498H52.2811C52.662 15.0622 53.0412 14.9922 53.3938 14.8446C53.7464 14.697 54.0645 14.4751 54.3272 14.1933C54.8552 13.6261 55.1198 12.8727 55.121 11.9331V9.22626C55.121 8.1951 54.8653 7.36823 54.3537 6.74566C54.1021 6.43716 53.7843 6.19192 53.4249 6.02897C53.0654 5.86602 52.674 5.78973 52.2811 5.80601C51.8896 5.78856 51.4995 5.86439 51.1417 6.02748C50.7839 6.19058 50.4683 6.43647 50.2197 6.74566C49.7145 7.37209 49.4619 8.19896 49.4619 9.22626L49.4657 15.0498Z" fill="#0AAD0A"/>
<path d="M61.4379 23.381C60.2443 23.381 59.2932 23.0111 58.5847 22.2712C57.8761 21.5313 57.5218 20.5517 57.5218 19.3324C57.5063 18.836 57.594 18.342 57.7791 17.8828C57.9643 17.4235 58.2427 17.0096 58.596 16.6681C59.3122 15.9721 60.267 15.624 61.4606 15.624H64.0202V13.8994C64.0202 13.0113 63.7904 12.3063 63.3306 11.7842C62.8708 11.2622 62.2393 11.0012 61.436 11.0012C61.105 10.9851 60.7743 11.0382 60.4642 11.1573C60.154 11.2763 59.871 11.4587 59.6324 11.6934C59.1642 12.1894 58.894 12.8456 58.8745 13.534C58.8575 13.6906 58.7817 13.7699 58.6453 13.7699H57.9538C57.9224 13.7745 57.8905 13.7715 57.8605 13.7612C57.8305 13.751 57.8033 13.7337 57.781 13.7108C57.7587 13.6879 57.742 13.6599 57.7322 13.6292C57.7224 13.5985 57.7198 13.5659 57.7245 13.534C57.7577 12.5476 58.1526 11.6099 58.831 10.9064C59.4953 10.2272 60.3656 9.88752 61.4417 9.88752C62.5671 9.88752 63.4714 10.2575 64.1547 10.9973C64.8381 11.7372 65.1791 12.7078 65.1778 13.9091V19.342C65.1778 20.5434 64.8412 21.5185 64.168 22.2673C63.4948 23.0162 62.5848 23.3874 61.4379 23.381ZM61.4379 22.2828C62.24 22.2828 62.8715 22.0173 63.3325 21.4862C63.7935 20.9552 64.0234 20.2372 64.0221 19.3324V16.7203H61.4663C60.5973 16.7203 59.9153 16.96 59.4202 17.4395C59.1723 17.6836 58.978 17.9784 58.85 18.3047C58.7219 18.631 58.6632 18.9812 58.6775 19.3324C58.6775 20.2346 58.9206 20.9526 59.4069 21.4862C59.8932 22.0199 60.5702 22.2854 61.4379 22.2828Z" fill="#0AAD0A"/>
<path d="M71.0127 23.4063C69.8874 23.4063 68.9704 23.028 68.2618 22.2714C67.5532 21.5148 67.199 20.5435 67.199 19.3577V14.0001C67.199 12.8001 67.5444 11.8121 68.2353 11.0361C68.9262 10.2602 69.8349 9.8735 70.9616 9.87608C72.0352 9.87608 72.9136 10.2157 73.597 10.895C74.2889 11.5935 74.6848 12.541 74.6996 13.5342C74.6996 13.6908 74.6314 13.77 74.495 13.77H73.7788C73.6405 13.77 73.5742 13.6908 73.5742 13.5342C73.5529 12.8416 73.2737 12.1834 72.7937 11.6935C72.5488 11.4601 72.2609 11.2787 71.9467 11.1599C71.6325 11.041 71.2983 10.9871 70.9635 11.0013C70.6054 10.9847 70.2482 11.05 69.9181 11.1925C69.588 11.335 69.2933 11.5511 69.0556 11.825C68.587 12.3728 68.3521 13.0978 68.3509 14.0001V19.3538C68.3509 20.2264 68.5896 20.9354 69.067 21.4806C69.5444 22.0258 70.193 22.2952 71.0127 22.2888C71.362 22.3023 71.7102 22.2404 72.0344 22.1072C72.3586 21.9739 72.6515 21.7722 72.8941 21.5154C73.3957 20.9502 73.6738 20.215 73.6746 19.4524C73.6746 19.3132 73.7504 19.2436 73.9039 19.2436H74.5954C74.7489 19.2436 74.8246 19.3132 74.8246 19.4524C74.7564 20.6125 74.3775 21.5657 73.6879 22.312C73.3428 22.6765 72.926 22.9624 72.465 23.151C72.0039 23.3396 71.509 23.4266 71.0127 23.4063Z" fill="#0AAD0A"/>
<path d="M80.7112 15.8852C81.5821 16.0055 82.3816 16.4412 82.9639 17.1129C83.5368 17.8043 83.8373 18.6885 83.807 19.5935V22.9616C83.8092 22.9894 83.8056 23.0174 83.7962 23.0437C83.7868 23.0699 83.772 23.0938 83.7528 23.1136C83.7335 23.1335 83.7103 23.1488 83.6846 23.1586C83.659 23.1684 83.6316 23.1724 83.6043 23.1704H82.8862C82.8588 23.1727 82.8311 23.1689 82.8053 23.1593C82.7794 23.1496 82.7559 23.1343 82.7364 23.1144C82.7169 23.0945 82.7019 23.0706 82.6925 23.0442C82.683 23.0178 82.6793 22.9896 82.6816 22.9616V19.5935C82.6816 18.7583 82.434 18.0964 81.9389 17.6079C81.4438 17.1194 80.787 16.8757 79.9686 16.877H77.6951V22.9616C77.6973 22.9896 77.6936 23.0178 77.6842 23.0442C77.6747 23.0706 77.6597 23.0945 77.6402 23.1144C77.6207 23.1343 77.5973 23.1496 77.5714 23.1593C77.5455 23.1689 77.5179 23.1727 77.4904 23.1704H76.7743C76.7468 23.1727 76.7192 23.1689 76.6933 23.1593C76.6675 23.1496 76.644 23.1343 76.6245 23.1144C76.605 23.0945 76.59 23.0706 76.5806 23.0442C76.5711 23.0178 76.5674 22.9896 76.5697 22.9616V5.10624C76.5674 5.07822 76.5711 5.05003 76.5806 5.02363C76.59 4.99723 76.605 4.97326 76.6245 4.95338C76.644 4.9335 76.6675 4.9182 76.6933 4.90853C76.7192 4.89887 76.7468 4.89508 76.7743 4.89743H77.4904C77.5176 4.89567 77.5448 4.89989 77.5702 4.90982C77.5956 4.91975 77.6186 4.93514 77.6376 4.95495C77.6567 4.97476 77.6714 4.99853 77.6806 5.02463C77.6899 5.05074 77.6935 5.07857 77.6913 5.10624V15.7537H79.5347L82.7328 10.2705C82.7551 10.2212 82.7914 10.1799 82.837 10.152C82.8826 10.1241 82.9354 10.1108 82.9885 10.1139H83.807C83.9939 10.1139 84.0451 10.2009 83.9604 10.3749L80.7112 15.8852Z" fill="#0AAD0A"/>
<path d="M4.80852 3.94622C4.80825 4.22719 4.77775 4.50728 4.71758 4.78146C4.43805 4.84765 4.15198 4.88074 3.86502 4.88007C3.28793 4.88153 2.71787 4.75076 2.19691 4.49741C1.67594 4.24406 1.21735 3.87459 0.854955 3.41625C0.492565 2.95792 0.235619 2.4224 0.103072 1.84922C-0.0294762 1.27603 -0.0342442 0.679787 0.0891171 0.104468C0.367903 0.0333901 0.65433 -0.00168619 0.941679 6.22745e-05C1.96723 6.22745e-05 2.95078 0.415816 3.67595 1.15586C4.40112 1.89591 4.80852 2.89963 4.80852 3.94622Z" fill="#0AAD0A"/>
<path fill-rule="evenodd" clip-rule="evenodd" d="M63.2486 28.2406H82.9078C83.511 28.2406 84 28.7369 84 29.3491V34.8915C84 35.5037 83.511 36 82.9078 36H63.2486C62.6454 36 62.1564 35.5037 62.1564 34.8915V29.3491C62.1564 28.7369 62.6454 28.2406 63.2486 28.2406ZM65.9508 30.5216V31.1245H64.6895V31.8828H65.9147V32.4858H64.6895V33.7191H64.0679V30.5216H65.9508ZM69.0569 33.3034C68.7371 33.6232 68.3497 33.7831 67.8947 33.7831C67.4353 33.7831 67.0479 33.6232 66.7326 33.3034C66.4173 32.9837 66.2596 32.5863 66.2596 32.1203C66.2596 31.6544 66.4173 31.2616 66.7326 30.9418C67.0479 30.6221 67.4353 30.4576 67.8947 30.4576C68.3497 30.4576 68.7371 30.6221 69.0569 30.9418C69.3722 31.2616 69.5344 31.6544 69.5344 32.1203C69.5344 32.5863 69.3722 32.9837 69.0569 33.3034ZM72.3722 33.7191H71.701L71.0659 32.6091H70.5929V33.7191H69.9713V30.5216H71.2326C71.5209 30.5216 71.7686 30.6266 71.9758 30.8322C72.1785 31.0423 72.2821 31.289 72.2821 31.5813C72.2821 31.7823 72.2236 31.965 72.1155 32.134C72.0028 32.3031 71.8542 32.431 71.674 32.5132L72.3722 33.7191ZM75.6572 30.5216H76.3599L75.2788 32.4721V33.7191H74.6617V32.4721L73.5851 30.5216H74.2878L74.9725 31.8554L75.6572 30.5216ZM79.0866 33.3034C78.7667 33.6232 78.3794 33.7831 77.9244 33.7831C77.4649 33.7831 77.0775 33.6232 76.7622 33.3034C76.4469 32.9837 76.2892 32.5863 76.2892 32.1203C76.2892 31.6544 76.4469 31.2616 76.7622 30.9418C77.0775 30.6221 77.4649 30.4576 77.9244 30.4576C78.3794 30.4576 78.7667 30.6221 79.0866 30.9418C79.4019 31.2616 79.5641 31.6544 79.5641 32.1203C79.5641 32.5863 79.4019 32.9837 79.0866 33.3034ZM82.024 33.4816C81.7988 33.6826 81.506 33.7831 81.1546 33.7831C80.8033 33.7831 80.515 33.6826 80.2898 33.4816C80.0645 33.2806 79.9519 33.0111 79.9519 32.6731V30.5216H80.5691V32.6228C80.5691 32.7918 80.6141 32.9243 80.7087 33.0202C80.8033 33.1207 80.9519 33.1664 81.1546 33.1664C81.3528 33.1664 81.5015 33.1207 81.5961 33.0202C81.6907 32.9243 81.7402 32.7918 81.7402 32.6228V30.5216H82.3619V32.6731C82.3619 33.0111 82.2492 33.2806 82.024 33.4816Z" fill="#0AAD0A"/>
<path d="M67.8947 33.1664C67.6065 33.1664 67.3632 33.0705 67.1695 32.8741C66.9713 32.6776 66.8767 32.4264 66.8767 32.1203C66.8767 31.8189 66.9713 31.5676 67.1695 31.3666C67.3632 31.1702 67.6065 31.0697 67.8947 31.0697C68.183 31.0697 68.4218 31.1702 68.62 31.3666C68.8137 31.5676 68.9128 31.8189 68.9128 32.1203C68.9128 32.4264 68.8137 32.6776 68.62 32.8741C68.4218 33.0705 68.183 33.1664 67.8947 33.1664Z" fill="#0AAD0A"/>
<path d="M70.5929 31.1108H71.2326C71.3497 31.1108 71.4488 31.1565 71.5344 31.2479C71.6155 31.3392 71.6605 31.4534 71.6605 31.5813C71.6605 31.7138 71.6155 31.828 71.5344 31.9193C71.4488 32.0107 71.3497 32.0564 71.2326 32.0564H70.5929V31.1108Z" fill="#0AAD0A"/>
<path d="M77.9244 33.1664C77.6361 33.1664 77.3929 33.0705 77.1992 32.8741C77.001 32.6776 76.9064 32.4264 76.9064 32.1203C76.9064 31.8189 77.001 31.5676 77.1992 31.3666C77.3929 31.1702 77.6361 31.0697 77.9244 31.0697C78.2127 31.0697 78.4514 31.1702 78.6496 31.3666C78.8433 31.5676 78.9424 31.8189 78.9424 32.1203C78.9424 32.4264 78.8433 32.6776 78.6496 32.8741C78.4514 33.0705 78.2127 33.1664 77.9244 33.1664Z" fill="#0AAD0A"/>
<path d="M65.9508 31.1245V30.5216H64.0679V33.7191H64.6895V32.4858H65.9147V31.8828H64.6895V31.1245H65.9508Z" fill="white"/>
<path fill-rule="evenodd" clip-rule="evenodd" d="M67.8947 33.7831C68.3497 33.7831 68.7371 33.6232 69.0569 33.3034C69.3722 32.9837 69.5344 32.5863 69.5344 32.1203C69.5344 31.6544 69.3722 31.2616 69.0569 30.9418C68.7371 30.6221 68.3497 30.4576 67.8947 30.4576C67.4353 30.4576 67.0479 30.6221 66.7326 30.9418C66.4173 31.2616 66.2596 31.6544 66.2596 32.1203C66.2596 32.5863 66.4173 32.9837 66.7326 33.3034C67.0479 33.6232 67.4353 33.7831 67.8947 33.7831ZM67.1695 32.8741C67.3632 33.0705 67.6065 33.1664 67.8947 33.1664C68.183 33.1664 68.4218 33.0705 68.62 32.8741C68.8137 32.6776 68.9128 32.4264 68.9128 32.1203C68.9128 31.8189 68.8137 31.5676 68.62 31.3666C68.4218 31.1702 68.183 31.0697 67.8947 31.0697C67.6065 31.0697 67.3632 31.1702 67.1695 31.3666C66.9713 31.5676 66.8767 31.8189 66.8767 32.1203C66.8767 32.4264 66.9713 32.6776 67.1695 32.8741Z" fill="white"/>
<path fill-rule="evenodd" clip-rule="evenodd" d="M71.701 33.7191H72.3722L71.674 32.5132C71.8542 32.431 72.0028 32.3031 72.1155 32.134C72.2236 31.965 72.2821 31.7823 72.2821 31.5813C72.2821 31.289 72.1785 31.0423 71.9758 30.8322C71.7686 30.6266 71.5209 30.5216 71.2326 30.5216H69.9713V33.7191H70.5929V32.6091H71.0659L71.701 33.7191ZM71.2326 31.1108H70.5929V32.0564H71.2326C71.3497 32.0564 71.4488 32.0107 71.5344 31.9193C71.6155 31.828 71.6605 31.7138 71.6605 31.5813C71.6605 31.4534 71.6155 31.3392 71.5344 31.2479C71.4488 31.1565 71.3497 31.1108 71.2326 31.1108Z" fill="white"/>
<path d="M76.3599 30.5216H75.6572L74.9725 31.8554L74.2878 30.5216H73.5851L74.6617 32.4721V33.7191H75.2788V32.4721L76.3599 30.5216Z" fill="white"/>
<path fill-rule="evenodd" clip-rule="evenodd" d="M77.9244 33.7831C78.3794 33.7831 78.7667 33.6232 79.0866 33.3034C79.4019 32.9837 79.5641 32.5863 79.5641 32.1203C79.5641 31.6544 79.4019 31.2616 79.0866 30.9418C78.7667 30.6221 78.3794 30.4576 77.9244 30.4576C77.4649 30.4576 77.0775 30.6221 76.7622 30.9418C76.4469 31.2616 76.2892 31.6544 76.2892 32.1203C76.2892 32.5863 76.4469 32.9837 76.7622 33.3034C77.0775 33.6232 77.4649 33.7831 77.9244 33.7831ZM77.1992 32.8741C77.3929 33.0705 77.6361 33.1664 77.9244 33.1664C78.2127 33.1664 78.4514 33.0705 78.6496 32.8741C78.8433 32.6776 78.9424 32.4264 78.9424 32.1203C78.9424 31.8189 78.8433 31.5676 78.6496 31.3666C78.4514 31.1702 78.2127 31.0697 77.9244 31.0697C77.6361 31.0697 77.3929 31.1702 77.1992 31.3666C77.001 31.5676 76.9064 31.8189 76.9064 32.1203C76.9064 32.4264 77.001 32.6776 77.1992 32.8741Z" fill="white"/>
<path d="M81.1546 33.7831C81.506 33.7831 81.7988 33.6826 82.024 33.4816C82.2492 33.2806 82.3619 33.0111 82.3619 32.6731V30.5216H81.7402V32.6228C81.7402 32.7918 81.6907 32.9243 81.5961 33.0202C81.5015 33.1207 81.3528 33.1664 81.1546 33.1664C80.9519 33.1664 80.8033 33.1207 80.7087 33.0202C80.6141 32.9243 80.5691 32.7918 80.5691 32.6228V30.5216H79.9519V32.6731C79.9519 33.0111 80.0645 33.2806 80.2898 33.4816C80.515 33.6826 80.8033 33.7831 81.1546 33.7831Z" fill="white"/>
</svg>
